<?xml version="1.0" standalone="no"?>
<!DOCTYPE svg PUBLIC "-//W3C//DTD SVG 20010904//EN"
 "http://www.w3.org/TR/2001/REC-SVG-20010904/DTD/svg10.dtd">
<svg version="1.0" xmlns="http://www.w3.org/2000/svg"
 width="228.000000pt" height="228.000000pt" viewBox="0 0 228.000000 228.000000"
 preserveAspectRatio="xMidYMid meet">
<metadata>
Created by potrace 1.14, written by Peter Selinger 2001-2017
</metadata>
<g transform="translate(0.000000,228.000000) scale(0.100000,-0.100000)"
fill="#000000" stroke="none">
<path d="M355 1508 c-17 -43 -34 -167 -39 -303 -3 -60 -11 -154 -20 -208 -20
-131 -1 -185 41 -120 14 22 17 45 16 122 l-3 94 29 -44 c36 -58 90 -100 182
-144 70 -33 211 -75 251 -75 15 0 17 -3 8 -19 -16 -31 -12 -76 9 -95 11 -10
38 -20 60 -23 35 -5 44 -2 72 26 24 24 30 38 27 60 l-4 27 185 12 c196 13 277
24 535 73 137 26 160 28 175 16 29 -26 101 -37 136 -22 36 15 36 11 56 218 14
143 9 154 -64 143 -76 -12 -227 -117 -227 -160 -1 -37 -17 -35 -269 37 -139
40 -252 76 -252 80 1 4 1 27 1 52 l0 45 40 0 c50 0 53 19 7 55 -86 65 -461
108 -571 66 -48 -19 -25 -21 37 -3 51 14 73 14 175 3 212 -22 318 -46 344 -78
7 -9 8 -14 2 -10 -26 15 -356 51 -544 59 -54 3 -65 0 -68 -14 -2 -9 5 -19 17
-23 12 -3 21 -9 21 -13 -1 -22 -24 -30 -105 -35 -105 -6 -182 -28 -222 -61
l-29 -24 22 86 c23 95 38 200 24 167 -4 -11 -20 -74 -35 -140 -29 -129 -45
-164 -45 -99 0 57 19 203 32 244 15 49 25 58 42 34 15 -18 15 -18 9 4 -8 34
-41 28 -58 -10z m635 -149 c219 -19 319 -34 307 -45 -5 -5 -482 33 -535 42
-35 7 -54 24 -25 24 10 0 124 -9 253 -21z m-15 -39 c225 -16 235 -19 145 -49
l-70 -24 -98 22 c-84 19 -162 52 -162 67 0 3 3 3 8 1 4 -3 84 -10 177 -17z
m-184 -18 c-16 -5 -41 5 -41 17 0 7 10 6 26 -1 15 -7 21 -14 15 -16z m-79 -91
c-2 -52 2 -77 10 -83 8 -4 -4 -8 -29 -8 -45 0 -51 -6 -30 -33 19 -26 104 -42
344 -67 186 -20 228 -22 263 -11 48 14 48 32 2 46 -32 9 -32 10 -26 60 4 27 8
52 11 54 2 3 115 -26 251 -64 136 -37 301 -82 367 -99 l120 -31 -75 -7 c-119
-10 -705 -9 -815 3 -55 6 -109 11 -120 11 -54 2 -258 31 -339 49 -50 11 -97
20 -103 21 -17 2 -16 9 3 67 12 39 13 57 4 89 -6 23 -15 44 -20 47 -15 10 -12
23 8 28 9 3 53 4 97 4 l80 -2 -3 -74z m176 36 c34 -16 59 -34 55 -37 -4 -4
-44 -20 -88 -35 -44 -14 -86 -29 -92 -32 -10 -3 -13 14 -13 71 l0 75 38 -5
c20 -3 65 -20 100 -37z m338 27 c-3 -9 -6 -28 -6 -43 l0 -28 -60 16 c-33 9
-60 18 -60 21 0 5 103 46 124 49 4 0 5 -6 2 -15z m-709 -31 c28 -42 23 -118
-12 -181 -40 -73 -47 -77 -80 -45 -44 44 -68 101 -62 145 6 48 21 66 72 89 53
25 61 24 82 -8z m486 -14 c-28 -11 -36 -10 -62 10 -23 18 -23 18 28 7 38 -7
47 -12 34 -17z m1057 -46 c0 -64 -18 -185 -29 -196 -5 -5 -61 6 -125 24 -135
38 -139 44 -75 114 48 51 147 105 196 105 33 0 33 0 33 -47z m-912 20 l72 -17
0 -47 c0 -26 -4 -50 -9 -54 -6 -3 -55 22 -111 56 -69 43 -97 65 -88 70 20 13
56 11 136 -8z m-29 -94 c56 -35 59 -35 -174 -6 l-179 23 99 36 100 35 54 -29
c30 -17 75 -43 100 -59z m-148 -25 c112 -14 227 -29 254 -34 l50 -8 -65 -1
c-77 -1 -475 44 -510 58 -46 18 54 13 271 -15z m-635 -159 c-5 -29 -12 -45
-22 -45 -17 0 -17 18 -2 134 l12 91 9 -67 c5 -37 6 -88 3 -113z m527 128 c-7
-2 -19 -2 -25 0 -7 3 -2 5 12 5 14 0 19 -2 13 -5z m90 -10 c-7 -2 -19 -2 -25
0 -7 3 -2 5 12 5 14 0 19 -2 13 -5z m-423 -14 c0 -5 4 -8 10 -4 5 3 54 -4 109
-15 54 -11 146 -25 203 -31 56 -6 110 -14 118 -17 8 -3 19 -4 25 -3 5 1 81 -3
170 -9 88 -6 277 -11 419 -11 143 1 257 -1 255 -3 -4 -4 -224 -47 -364 -70
-107 -19 -333 -36 -465 -36 -175 0 -371 45 -487 111 -29 17 -53 33 -53 35 0 3
10 18 22 34 22 31 38 38 38 19z m1510 -99 c0 -22 -28 -40 -61 -40 -29 0 -99
21 -99 31 0 8 81 26 128 28 26 1 32 -3 32 -19z m-1109 -136 c16 -20 1 -48 -29
-52 -24 -4 -45 28 -36 52 8 21 48 21 65 0z"/>
</g>
</svg>
